<?xml version="1.0" standalone="no"?>
<!DOCTYPE svg PUBLIC "-//W3C//DTD SVG 20010904//EN"
 "http://www.w3.org/TR/2001/REC-SVG-20010904/DTD/svg10.dtd">
<svg version="1.0" xmlns="http://www.w3.org/2000/svg"
 width="950.000000pt" height="1280.000000pt" viewBox="0 0 950.000000 1280.000000"
 preserveAspectRatio="xMidYMid meet">
<metadata>
Created by potrace 1.15, written by Peter Selinger 2001-2017
</metadata>
<g transform="translate(0.000000,1280.000000) scale(0.100000,-0.100000)"
fill="#000000" stroke="none">
<path d="M9305 12763 c-22 -19 -67 -60 -99 -91 -59 -54 -202 -132 -243 -132
-11 0 -37 -15 -59 -33 -21 -18 -75 -61 -120 -95 -83 -62 -182 -163 -201 -204
-39 -86 -43 -103 -43 -186 0 -48 -5 -107 -11 -132 -6 -25 -23 -115 -39 -200
-16 -85 -40 -191 -54 -235 -13 -44 -29 -105 -35 -135 -5 -30 -18 -80 -30 -110
-53 -145 -71 -240 -74 -400 l-3 -155 -47 -124 c-33 -85 -55 -166 -72 -260 -52
-294 -56 -309 -114 -385 -29 -38 -77 -117 -107 -177 -30 -60 -69 -126 -88
-147 -37 -41 -57 -76 -92 -166 l-25 -61 7 120 c10 171 10 217 1 336 l-8 106
23 -4 c35 -7 57 24 84 118 40 139 29 232 -26 214 -19 -6 -20 -2 -20 75 0 45 5
113 12 151 8 49 8 73 1 80 -8 8 -5 17 8 30 22 22 17 39 -12 39 -33 0 -36 31
-5 55 18 14 25 27 20 38 -5 15 -8 15 -27 2 -26 -18 -57 -20 -57 -2 0 18 12 33
33 40 11 4 17 14 15 24 -4 18 -12 19 -53 12 -16 -3 -21 2 -23 24 -2 16 2 35 9
43 9 11 9 17 -1 30 -12 13 -16 12 -36 -13 -18 -23 -25 -26 -36 -15 -10 10 -10
16 0 32 6 11 12 29 12 40 0 27 -36 27 -45 0 -3 -11 -14 -24 -24 -29 -29 -16
-45 4 -47 60 -1 28 -7 56 -12 61 -16 16 -33 -1 -26 -26 6 -27 -15 -49 -36 -36
-11 7 -11 11 -1 24 10 12 9 17 -9 26 -23 12 -40 6 -40 -15 0 -16 -38 -40 -48
-30 -4 4 -7 23 -7 43 0 30 -4 37 -20 37 -16 0 -20 -7 -20 -31 -1 -34 -21 -67
-36 -58 -5 3 -8 18 -7 32 2 21 -2 28 -19 30 -19 3 -23 -1 -23 -26 0 -16 -8
-37 -19 -46 -17 -15 -19 -15 -25 -1 -3 9 -6 25 -6 36 0 12 -7 19 -19 19 -23 0
-32 -19 -18 -41 14 -23 0 -69 -21 -69 -9 0 -23 9 -30 20 -16 26 -52 27 -52 1
0 -11 5 -23 10 -26 12 -8 12 -16 1 -34 -7 -11 -14 -11 -40 2 -28 14 -33 14
-38 1 -3 -9 4 -24 16 -35 11 -11 21 -24 21 -28 0 -14 -37 -20 -49 -8 -8 8 -14
8 -23 -1 -9 -9 -8 -21 2 -51 16 -49 8 -64 -27 -50 -20 7 -28 6 -35 -3 -12 -21
-9 -29 12 -35 23 -6 27 -23 5 -23 -14 0 -21 -30 -10 -41 2 -3 7 -64 9 -135 2
-71 8 -150 12 -176 7 -47 6 -48 -19 -48 -52 0 -58 -113 -8 -176 11 -15 21 -33
21 -41 0 -8 12 -39 26 -70 24 -50 29 -55 55 -51 30 5 31 3 44 -59 3 -17 25
-62 48 -100 40 -65 41 -72 41 -148 0 -59 -5 -92 -21 -126 -25 -56 -119 -166
-208 -245 l-68 -59 -121 -7 c-94 -5 -161 -16 -301 -52 -99 -24 -199 -52 -223
-60 -36 -13 -92 -14 -380 -9 -337 5 -337 5 -426 34 -80 26 -101 29 -225 29
-75 -1 -190 -8 -256 -16 -78 -10 -255 -17 -510 -21 l-390 -5 -115 -40 c-63
-22 -158 -54 -210 -70 -52 -16 -113 -40 -134 -55 -41 -27 -42 -27 -341 -51
-62 -6 -80 -11 -83 -23 -5 -25 30 -60 68 -68 l35 -7 -32 -17 c-18 -9 -45 -17
-62 -17 -38 0 -47 -15 -27 -45 19 -30 78 -43 120 -27 16 7 31 10 33 8 2 -2
-30 -32 -72 -66 -42 -34 -74 -67 -72 -74 6 -19 54 -37 81 -30 14 3 61 37 104
74 43 37 104 84 135 104 30 20 58 40 62 46 9 15 205 12 234 -4 l23 -13 -45
-37 c-82 -67 -120 -149 -85 -184 24 -24 54 -12 113 49 33 33 92 79 130 101
120 70 164 107 188 157 21 44 24 46 62 46 22 -1 94 -13 159 -29 66 -15 167
-32 226 -39 l108 -11 31 -111 c46 -167 140 -454 163 -500 28 -55 104 -155 301
-389 92 -110 167 -204 167 -209 0 -4 -298 -7 -662 -5 -654 4 -666 4 -868 31
-358 48 -399 56 -474 93 -102 51 -165 62 -436 73 -291 12 -960 30 -1255 34
-173 2 -226 6 -300 24 -49 12 -126 26 -170 31 -66 8 -102 20 -209 71 -146 70
-236 102 -351 126 -44 9 -108 25 -143 37 -54 18 -78 20 -183 16 -90 -4 -124
-9 -136 -21 -19 -19 -82 -202 -83 -240 -1 -86 304 -270 477 -287 45 -5 80 -14
92 -24 9 -9 34 -16 54 -16 20 0 39 -4 42 -10 3 -6 28 -10 54 -10 26 0 81 -12
122 -26 63 -22 84 -25 144 -20 89 9 112 9 156 1 24 -5 58 0 103 14 74 23 269
30 281 11 3 -5 23 -10 44 -10 57 0 175 -34 385 -112 519 -191 546 -197 931
-207 l290 -7 95 -43 c265 -120 255 -117 700 -197 266 -47 420 -93 780 -232
217 -84 311 -104 720 -152 140 -17 265 -32 276 -35 19 -4 22 -14 26 -77 6 -86
30 -141 90 -198 l40 -40 19 -142 c10 -79 28 -199 39 -268 13 -84 23 -219 30
-415 24 -681 36 -830 81 -1041 46 -218 35 -415 -50 -869 -58 -313 -65 -378
-51 -498 15 -131 49 -283 106 -475 52 -176 214 -896 214 -954 0 -45 -21 -102
-43 -114 -22 -14 -49 -73 -42 -94 5 -15 2 -20 -12 -20 -10 0 -38 -26 -64 -58
-71 -89 -89 -118 -89 -144 0 -30 66 -95 227 -222 84 -66 125 -105 129 -123 4
-14 1 -98 -6 -185 -12 -146 -12 -163 5 -221 10 -34 26 -96 35 -137 20 -92 32
-100 147 -100 70 0 84 3 92 18 5 10 24 95 41 188 17 93 49 246 71 341 42 187
47 254 30 493 -7 97 -15 130 -45 210 -23 57 -43 135 -52 194 -8 55 -18 104
-22 110 -3 6 -7 123 -8 261 -2 227 -27 820 -55 1295 l-11 185 32 155 c17 85
51 236 75 335 23 99 59 256 80 349 20 93 49 206 65 250 16 45 44 126 64 181
44 126 55 192 63 383 l6 152 24 0 c13 0 35 -11 49 -25 21 -21 24 -31 19 -56
-8 -34 10 -61 58 -86 19 -10 38 -35 57 -78 26 -58 32 -65 69 -75 23 -6 47 -18
53 -26 46 -58 68 -74 100 -74 39 0 53 -10 92 -62 19 -28 35 -38 54 -38 19 -1
51 -22 107 -70 50 -43 84 -65 90 -59 6 6 23 -5 47 -28 37 -36 38 -36 77 -23
21 7 50 10 64 6 30 -7 49 12 75 79 22 55 25 56 134 40 39 -6 49 -5 54 8 3 9
-6 67 -20 129 -15 62 -42 201 -61 308 -82 454 -181 832 -283 1085 -84 208
-135 302 -224 408 l-40 48 31 73 c64 154 152 323 195 376 25 30 62 78 84 105
46 59 176 335 298 630 47 116 102 248 122 295 34 78 37 92 35 175 -2 98 -28
360 -39 388 -3 9 -14 17 -24 17 -20 0 -18 -7 -51 212 l-21 146 21 130 c15 94
30 152 56 211 118 269 206 542 250 782 20 107 41 214 46 239 6 25 12 85 15
134 3 70 12 112 39 188 19 55 35 118 35 141 0 41 9 116 52 422 16 119 21 218
25 480 2 194 8 348 15 373 15 58 59 94 148 121 52 16 84 33 116 63 36 33 64
47 153 75 90 28 114 39 131 64 35 48 24 64 -40 64 -30 -1 -73 -5 -94 -9 -28
-6 -37 -6 -32 3 4 6 17 11 29 11 12 1 40 8 62 16 22 8 78 19 125 25 51 6 91
16 102 26 19 17 24 58 9 67 -5 3 -64 1 -132 -4 -68 -5 -128 -5 -132 -1 -5 5
22 36 58 69 73 67 104 126 85 162 -14 27 -18 25 -65 -17z m-3921 -4129 c30
-10 65 -15 93 -11 28 3 63 -1 87 -10 58 -20 323 -87 441 -112 170 -35 267 -42
398 -30 140 14 132 18 202 -107 26 -47 61 -101 76 -120 28 -35 35 -65 38 -167
1 -27 6 -57 11 -67 16 -29 12 -137 -6 -172 -10 -19 -14 -42 -10 -63 l6 -33
-100 -12 c-55 -8 -110 -18 -123 -24 -20 -11 -25 -6 -71 70 -57 96 -89 132
-256 281 -158 142 -139 127 -505 384 -61 43 -155 100 -210 127 -146 73 -177
102 -71 66z"/>
</g>
</svg>
