<?xml version="1.0" standalone="no"?>
<!DOCTYPE svg PUBLIC "-//W3C//DTD SVG 20010904//EN"
 "http://www.w3.org/TR/2001/REC-SVG-20010904/DTD/svg10.dtd">
<svg version="1.0" xmlns="http://www.w3.org/2000/svg"
 width="770.000000pt" height="1280.000000pt" viewBox="0 0 770.000000 1280.000000"
 preserveAspectRatio="xMidYMid meet">
<metadata>
Created by potrace 1.15, written by Peter Selinger 2001-2017
</metadata>
<g transform="translate(0.000000,1280.000000) scale(0.100000,-0.100000)"
fill="#000000" stroke="none">
<path d="M4800 12769 c-238 -43 -324 -65 -424 -110 -50 -23 -137 -59 -192 -80
-171 -66 -230 -113 -366 -289 -71 -91 -76 -95 -122 -102 -60 -8 -67 -15 -90
-82 -10 -30 -37 -77 -60 -105 -22 -27 -66 -81 -97 -118 -34 -41 -114 -170
-199 -322 -77 -140 -157 -273 -176 -295 -49 -57 -68 -130 -60 -225 27 -310 98
-836 136 -1006 77 -345 120 -631 120 -790 0 -131 -17 -188 -71 -240 -63 -62
-125 -153 -150 -225 -22 -62 -23 -77 -21 -304 4 -334 -18 -501 -94 -744 -28
-92 -42 -120 -72 -150 -35 -35 -534 -352 -631 -402 -25 -12 -115 -39 -201 -61
-317 -78 -762 -226 -1440 -481 -162 -61 -358 -132 -434 -157 -82 -27 -144 -53
-150 -63 -22 -36 72 -403 159 -624 105 -265 193 -413 414 -697 202 -260 281
-334 330 -307 11 5 38 39 60 75 57 89 105 141 171 183 30 20 75 53 100 75 78
67 92 72 163 48 72 -25 195 -28 272 -7 28 7 92 30 143 50 108 43 111 43 227
-15 68 -33 95 -41 178 -49 54 -6 155 -19 225 -30 205 -32 358 -42 421 -29 44
9 63 20 100 58 25 26 62 58 81 71 19 14 72 59 117 101 l82 77 68 6 c37 4 102
14 143 22 94 21 150 28 150 20 0 -14 105 -495 146 -670 103 -441 232 -867 313
-1036 22 -47 65 -130 96 -185 119 -217 173 -432 209 -830 26 -282 63 -789 81
-1090 6 -105 -3 -196 -66 -630 -44 -303 -54 -347 -93 -418 -19 -34 -40 -82
-46 -105 -6 -26 -28 -62 -51 -86 -83 -91 -101 -240 -38 -320 30 -38 94 -67
158 -73 106 -10 247 57 371 174 64 60 106 118 214 295 111 182 190 267 361
388 140 98 199 156 231 225 28 60 29 87 5 140 -22 50 -70 93 -158 141 -148 80
-186 120 -219 229 -24 81 -18 276 17 565 36 300 49 662 30 851 -25 257 -79
489 -166 709 -37 93 -66 186 -81 261 -12 65 -31 134 -40 156 -14 32 -16 63
-13 193 9 343 4 592 -14 663 -22 87 -21 104 2 112 26 8 125 -18 231 -61 77
-31 100 -36 232 -44 225 -15 439 4 673 60 218 52 336 101 539 224 147 90 175
90 281 1 28 -23 60 -47 72 -54 30 -15 92 -14 143 4 60 21 67 20 105 -22 33
-36 34 -36 72 -25 53 17 165 103 226 176 167 200 252 418 264 677 7 142 0 209
-25 238 -12 15 -43 25 -112 36 -133 23 -247 52 -299 77 -25 12 -60 21 -81 20
-19 -2 -63 9 -99 23 -35 15 -102 31 -150 37 -155 18 -233 37 -320 77 -47 21
-114 44 -148 50 -35 7 -92 25 -129 41 -36 17 -91 37 -123 45 -133 34 -803 268
-1180 412 -536 204 -829 341 -928 436 -41 38 -41 50 -2 79 17 13 76 91 131
173 136 202 209 294 315 395 49 47 101 101 116 120 l27 35 30 -35 c16 -19 38
-52 47 -72 14 -29 27 -40 55 -48 20 -6 57 -31 83 -56 49 -47 75 -51 75 -12 0
13 9 43 20 67 11 24 20 62 20 85 0 23 6 51 14 62 16 21 17 21 39 -55 7 -25 18
-46 25 -49 7 -2 24 21 41 59 16 36 31 57 35 50 13 -21 34 -11 45 21 11 32 12
32 31 13 11 -11 32 -51 48 -89 31 -77 52 -97 80 -80 11 7 19 31 24 70 4 32 13
81 21 108 l13 50 22 -38 c15 -25 27 -36 37 -32 8 3 21 9 29 12 9 3 19 -3 26
-16 14 -26 26 -19 45 26 13 31 27 39 62 35 17 -2 69 78 88 137 29 88 18 152
-47 281 -39 78 -52 113 -44 119 6 5 43 26 81 46 98 51 219 144 370 286 72 67
186 169 255 226 172 141 196 177 229 340 72 358 90 769 46 1054 -41 264 -105
442 -291 810 -68 135 -137 281 -153 325 -30 82 -41 95 -66 75 -26 -22 -29 -76
-6 -115 25 -43 25 -40 6 -59 -20 -20 -52 -8 -120 43 -90 69 -115 74 -115 23 0
-21 10 -33 45 -54 43 -26 60 -58 31 -58 -8 0 -48 16 -90 36 -42 20 -83 34 -91
30 -25 -9 -29 -36 -9 -56 31 -29 289 -170 312 -170 11 0 33 -10 47 -23 22 -18
28 -35 36 -100 17 -137 -32 -172 -147 -106 -77 44 -184 41 -184 -5 0 -6 26
-25 59 -43 32 -18 93 -64 136 -103 85 -78 142 -111 220 -129 83 -20 79 -6 61
-202 -9 -96 -21 -224 -26 -286 -6 -61 -28 -212 -50 -335 -22 -123 -44 -259
-51 -303 -23 -171 -59 -214 -327 -393 -199 -134 -261 -172 -279 -172 -16 0
-32 64 -32 130 0 36 -5 97 -10 135 -13 89 -14 237 -1 303 7 40 6 59 -6 87 -8
19 -23 87 -34 150 -11 64 -23 128 -26 143 -17 69 -109 215 -176 280 -19 18
-80 52 -137 77 -56 24 -127 60 -159 79 l-57 35 -168 -45 c-93 -24 -194 -58
-226 -74 -67 -34 -122 -92 -141 -150 -9 -26 -28 -53 -52 -72 -21 -17 -50 -53
-65 -82 -14 -28 -43 -74 -65 -103 -51 -67 -75 -133 -93 -252 -16 -106 -19
-288 -5 -366 8 -46 6 -55 -28 -122 -20 -40 -39 -73 -42 -73 -4 0 -16 -9 -28
-20 l-21 -20 -26 37 c-14 21 -37 74 -50 119 -18 57 -54 128 -121 240 -53 87
-109 181 -125 207 -93 155 -129 345 -129 693 0 235 41 421 153 694 87 212 332
668 380 708 21 18 50 17 167 -3 88 -15 116 -16 180 -7 41 7 101 15 133 18 53
6 87 23 87 44 0 19 -54 50 -86 50 -28 0 -38 6 -54 33 -26 42 -25 47 9 85 38
41 58 41 221 2 136 -32 197 -37 224 -17 25 18 11 28 -105 74 -115 46 -121 61
-46 98 30 14 64 37 77 49 12 13 35 27 52 30 39 8 58 23 58 46 0 18 -20 31 -43
29 -7 -1 -82 -14 -167 -30z"/>
</g>
</svg>
