<?xml version="1.0" standalone="no"?>
<!DOCTYPE svg PUBLIC "-//W3C//DTD SVG 20010904//EN"
 "http://www.w3.org/TR/2001/REC-SVG-20010904/DTD/svg10.dtd">
<svg version="1.0" xmlns="http://www.w3.org/2000/svg"
 width="813.000000pt" height="1280.000000pt" viewBox="0 0 813.000000 1280.000000"
 preserveAspectRatio="xMidYMid meet">
<metadata>
Created by potrace 1.15, written by Peter Selinger 2001-2017
</metadata>
<g transform="translate(0.000000,1280.000000) scale(0.100000,-0.100000)"
fill="#000000" stroke="none">
<path d="M4011 12454 c-18 -14 -49 -28 -72 -31 -28 -4 -45 -13 -56 -29 -12
-19 -24 -24 -58 -24 -38 0 -47 -5 -75 -37 -30 -38 -31 -38 -107 -38 -61 0 -78
-3 -87 -17 -17 -28 4 -51 64 -71 30 -10 60 -27 68 -38 12 -17 21 -19 53 -14
48 8 136 -11 164 -35 31 -27 56 -38 132 -55 39 -9 79 -22 88 -29 17 -12 16
-14 -6 -34 -12 -12 -30 -22 -38 -23 -98 -7 -141 -21 -187 -61 -37 -32 -43 -58
-19 -78 18 -15 123 -6 199 16 27 8 67 14 88 14 49 0 120 30 221 92 43 26 87
48 97 48 20 0 38 -14 165 -124 165 -143 295 -270 460 -448 94 -100 213 -226
266 -278 l97 -95 5 -205 c4 -113 11 -245 17 -294 47 -394 49 -489 16 -727 -31
-217 -46 -385 -39 -422 4 -20 -8 -56 -48 -137 -29 -61 -55 -110 -58 -110 -11
1 -91 107 -118 156 -31 58 -86 130 -177 234 -50 56 -66 82 -66 105 0 17 -7 53
-16 80 -9 28 -17 73 -18 102 -3 63 -39 121 -105 167 -24 17 -75 60 -113 95
-38 36 -84 74 -102 85 -18 12 -68 44 -110 73 -121 82 -171 98 -296 97 -83 -2
-117 -7 -160 -24 -30 -12 -79 -28 -109 -36 -29 -8 -70 -28 -91 -44 -20 -16
-39 -27 -42 -24 -7 7 -68 -64 -68 -79 0 -22 -32 -60 -40 -47 -12 19 -41 -37
-49 -94 -4 -28 -14 -64 -23 -81 -20 -37 -38 -153 -38 -237 0 -66 34 -185 70
-242 26 -43 64 -78 81 -74 8 2 13 -2 12 -9 -2 -7 3 -10 10 -7 7 2 31 -11 52
-29 22 -19 65 -47 95 -62 103 -51 169 -98 164 -117 -7 -22 41 -67 119 -114 67
-39 97 -49 132 -40 17 4 25 13 25 28 0 19 3 20 48 13 26 -4 81 -10 122 -14 85
-8 97 -13 196 -88 97 -72 135 -154 101 -219 -22 -42 -87 -100 -121 -108 -16
-4 -52 -28 -80 -52 -63 -57 -101 -77 -196 -99 -117 -28 -221 -67 -410 -155
-244 -114 -261 -120 -666 -226 -399 -104 -453 -115 -664 -139 -233 -27 -413
-60 -672 -125 -411 -104 -602 -139 -746 -140 -80 0 -150 -17 -162 -40 -9 -16
-137 -99 -325 -210 -49 -29 -97 -60 -105 -70 -9 -9 -38 -34 -65 -54 -28 -21
-91 -75 -142 -120 -51 -44 -115 -100 -142 -124 -28 -24 -51 -47 -51 -52 0 -18
56 -28 87 -15 24 10 130 78 251 161 27 18 27 14 3 -34 -10 -20 -26 -73 -36
-117 -9 -44 -25 -111 -36 -150 -20 -74 -24 -121 -11 -129 5 -3 31 5 58 18 39
18 55 33 74 69 14 27 33 48 46 51 22 6 49 34 119 125 41 55 112 111 139 111
30 0 67 24 94 60 15 20 64 70 110 110 45 40 82 79 82 86 0 8 12 16 28 20 15 3
34 8 42 11 8 3 222 5 475 4 440 -2 739 8 889 30 39 5 151 29 250 54 100 24
244 58 321 75 192 42 499 114 686 160 321 79 474 93 619 58 89 -22 219 -87
435 -218 121 -73 247 -148 280 -167 138 -79 233 -167 316 -291 81 -122 103
-184 97 -287 -3 -59 -9 -81 -34 -121 -26 -43 -35 -50 -70 -54 -43 -6 -123 -61
-300 -206 -134 -110 -208 -192 -308 -344 -120 -181 -413 -675 -485 -818 -19
-38 -20 -42 -4 -33 61 31 126 61 135 61 6 0 17 8 24 18 24 30 -10 -58 -47
-123 -18 -32 -27 -55 -20 -50 18 11 9 -26 -24 -101 -24 -53 -26 -55 -55 -49
-39 9 -38 -1 8 -49 20 -21 32 -36 25 -32 -26 14 -18 -21 11 -47 26 -23 14 -19
-73 24 -191 94 -227 73 -86 -50 93 -81 128 -118 78 -83 -54 38 -76 23 -23 -16
17 -13 47 -24 68 -26 75 -8 116 -19 150 -42 19 -13 42 -25 51 -25 48 -4 -59
-17 -144 -18 -196 -2 -454 -48 -602 -107 -83 -33 -166 -82 -269 -161 -133
-100 -532 -373 -546 -373 -19 0 -112 -45 -147 -71 -22 -16 -45 -23 -81 -23
-42 -1 -54 3 -75 26 -16 18 -43 30 -82 39 -129 27 -191 10 -234 -64 -39 -66
-167 -182 -274 -247 -32 -19 -96 -71 -142 -115 l-85 -80 -5 -60 c-5 -61 16
-175 38 -201 22 -26 104 -35 186 -19 178 33 211 46 254 95 22 25 47 53 56 62
25 28 130 65 263 93 68 15 137 33 152 41 15 8 36 14 48 14 24 0 112 42 157 76
17 13 37 24 43 24 16 0 120 68 120 79 0 11 334 168 491 229 208 82 636 203
784 221 44 6 116 10 160 10 44 -1 114 7 155 16 41 9 88 19 104 22 l29 6 -6
-194 c-7 -270 -24 -325 -200 -651 -140 -260 -184 -522 -130 -788 12 -58 29
-163 37 -235 9 -71 21 -166 27 -210 5 -44 14 -109 18 -145 5 -36 5 -75 0 -88
-5 -13 -9 -35 -9 -48 0 -14 -15 -44 -34 -67 -68 -84 -71 -98 -69 -337 2 -198
8 -328 32 -660 10 -133 32 -219 79 -304 41 -75 66 -89 159 -89 149 -1 194 53
270 317 24 82 25 95 15 165 -6 42 -25 117 -42 166 -24 70 -31 107 -30 165 0
41 -1 89 -1 105 -1 17 4 86 11 153 6 69 8 174 5 235 -20 358 15 751 101 1157
50 230 84 330 150 439 31 51 67 118 79 150 13 32 33 74 45 93 28 49 84 216
125 378 19 74 56 195 81 268 l47 133 46 -8 c25 -4 62 -6 81 -5 19 2 71 4 115
5 44 2 87 6 95 10 14 6 58 2 210 -23 87 -13 182 -12 178 3 -3 6 -18 15 -34 18
-17 4 6 7 57 8 144 2 210 11 207 30 -2 11 -23 20 -63 28 -33 6 -80 16 -105 21
l-45 10 65 1 c36 1 76 8 90 16 14 8 39 14 56 15 51 0 94 12 94 25 0 8 24 14
66 18 74 7 79 9 71 32 -5 11 -22 15 -64 17 -32 0 -62 2 -68 3 -5 2 -14 3 -20
4 -5 1 13 10 40 19 28 10 50 23 50 31 0 10 -14 15 -50 15 l-50 1 -8 80 c-12
134 -9 138 46 54 26 -41 48 -85 48 -99 1 -14 7 18 14 70 13 97 10 259 -16 890
-21 523 -22 651 -8 725 7 39 13 97 14 130 1 33 5 80 8 105 13 89 38 568 38
739 0 287 -25 432 -125 716 -26 75 -39 135 -51 242 -8 78 -22 161 -31 185 -31
88 -130 190 -308 318 -102 74 -158 138 -251 289 -50 82 -67 121 -80 180 -9 42
-29 137 -46 211 -69 314 -71 334 -80 775 -8 399 -11 454 -43 715 -8 69 -20
174 -26 235 -13 125 -35 197 -80 258 -32 44 -211 200 -385 336 -55 43 -233
168 -395 276 -291 195 -419 287 -493 352 -28 25 -46 33 -75 33 -57 0 -183 35
-272 75 -67 30 -88 35 -153 35 -67 0 -79 -3 -106 -26z m725 -2366 l19 -21 -27
18 c-29 18 -34 25 -20 25 5 0 17 -10 28 -22z m284 -4712 c0 -8 -40 -100 -107
-244 -45 -96 -71 -141 -80 -138 -7 3 -17 -4 -23 -14 -6 -12 -7 -20 -1 -20 5 0
12 6 14 13 4 8 6 7 6 -3 0 -8 -6 -26 -14 -40 -18 -32 -18 -40 0 -40 9 0 23 15
32 34 l16 34 56 -19 c30 -11 59 -23 64 -28 9 -9 -52 -158 -88 -213 -14 -21
-33 -38 -43 -38 -9 0 -78 14 -152 32 l-135 31 -74 66 c-147 131 -149 133 -121
126 14 -3 69 -28 122 -55 54 -28 104 -50 113 -50 18 0 20 31 3 48 -13 13 -17
72 -5 72 13 0 110 -51 155 -82 65 -45 89 -12 30 43 -18 16 -28 29 -22 29 6 0
19 7 30 15 18 13 18 14 -4 8 -12 -3 -43 2 -68 12 -25 9 -48 14 -51 11 -4 -3
-4 -7 -2 -9 61 -44 109 -83 109 -90 0 -5 -16 1 -36 14 -20 12 -57 33 -83 48
-53 29 -53 26 -9 118 25 50 37 65 64 75 30 11 39 23 85 130 29 65 56 118 60
118 4 0 -12 -45 -37 -101 -45 -103 -51 -148 -16 -134 10 4 26 10 37 13 11 2
26 9 33 15 15 12 15 7 2 -30 l-10 -28 20 25 c29 35 53 83 85 173 15 42 32 77
36 77 5 0 9 -2 9 -4z m75 -75 c5 -5 18 -7 28 -6 14 3 9 -13 -28 -81 -25 -46
-45 -86 -45 -89 0 -2 11 0 24 5 l24 9 -22 -40 c-16 -30 -26 -38 -40 -35 -11 3
-26 0 -33 -6 -11 -9 -10 -15 7 -33 19 -20 19 -24 5 -58 -17 -42 -17 -42 -54
-22 l-29 14 55 174 c48 148 59 173 76 175 12 0 26 -3 32 -7z m1352 -177 c-3
-4 1 -13 9 -21 8 -8 11 -19 8 -25 -4 -6 -2 -13 5 -17 12 -8 -21 -266 -39 -308
-9 -21 -17 -23 -75 -23 -44 0 -65 4 -65 12 0 6 22 32 50 58 42 39 49 51 49 80
-3 82 37 250 59 250 3 0 3 -3 -1 -6z m108 -239 c-18 -112 -30 -149 -46 -139
-11 6 -5 243 8 344 l5 45 24 -75 c24 -74 24 -76 9 -175z m-185 134 c-7 -23 -6
-44 1 -66 16 -49 8 -56 -33 -28 -20 14 -44 25 -52 25 -8 0 7 23 37 54 28 30
53 54 54 52 1 -1 -2 -18 -7 -37z m447 -137 c-6 -76 15 -301 29 -324 3 -4 -13
-8 -35 -8 -46 0 -44 -5 -61 190 -11 129 -12 260 -1 200 9 -53 34 -46 45 13 15
77 30 30 23 -71z m-479 18 c23 -17 42 -34 42 -38 0 -4 -23 -30 -50 -57 -33
-33 -50 -57 -48 -70 3 -18 12 -20 76 -23 l72 -3 -6 -41 c-5 -30 -4 -39 4 -34
7 4 12 1 12 -7 0 -8 12 -27 26 -42 24 -26 26 -33 20 -84 -5 -40 -2 -68 9 -96
14 -38 15 -31 13 139 -3 147 0 180 11 184 11 4 13 -3 8 -34 -5 -29 -4 -35 4
-24 8 11 9 2 6 -33 -4 -44 -3 -49 20 -58 14 -5 62 -13 106 -17 77 -7 82 -9 80
-30 -2 -15 3 -22 15 -22 14 0 15 2 2 10 -10 7 12 10 70 9 l85 0 -50 -14 c-27
-8 -69 -14 -91 -15 -28 0 -44 -5 -48 -15 -4 -13 9 -15 82 -16 48 -1 112 -4
142 -8 l55 -7 -77 -8 c-54 -5 -78 -12 -78 -21 0 -8 -17 -15 -42 -18 -24 -3
-61 -10 -83 -16 -22 -6 -62 -11 -88 -11 -34 0 -49 -4 -54 -16 -8 -23 9 -30 99
-44 128 -20 103 -31 -68 -29 -128 1 -159 -1 -168 -13 -10 -13 -27 -13 -136 -1
-69 7 -132 11 -140 7 -14 -5 -101 -11 -203 -15 -22 0 -54 2 -72 5 l-33 7 19
62 c16 50 61 226 94 364 6 25 90 87 105 78 6 -4 9 -1 8 5 -4 17 159 140 186
140 13 0 42 -14 64 -30z m299 -122 c-2 -13 -4 -5 -4 17 -1 22 1 32 4 23 2 -10
2 -28 0 -40z m3 -62 c0 -8 -4 -18 -10 -21 -5 -3 -10 3 -10 14 0 12 5 21 10 21
6 0 10 -6 10 -14z m27 -32 c-3 -4 5 -26 19 -50 l26 -44 -54 0 -54 0 4 35 c3
26 12 40 31 50 29 16 38 18 28 9z m-1852 -47 c7 -6 0 -7 -20 -3 -16 4 -34 12
-40 17 -7 7 0 8 20 3 17 -3 35 -11 40 -17z m402 -3144 c-3 -10 -5 -4 -5 12 0
17 2 24 5 18 2 -7 2 -21 0 -30z"/>
</g>
</svg>
